<?xml version="1.0" standalone="no"?><!DOCTYPE svg PUBLIC "-//W3C//DTD SVG 1.1//EN" "http://www.w3.org/Graphics/SVG/1.1/DTD/svg11.dtd"><svg t="1605009914437" class="icon" viewBox="0 0 1024 1024" version="1.1" xmlns="http://www.w3.org/2000/svg" p-id="4611" xmlns:xlink="http://www.w3.org/1999/xlink" width="200" height="200"><defs><style type="text/css"></style></defs><path d="M512 940.8c-15.36 0-30.72-5.12-35.84-15.36-10.24-10.24-78.08-83.2-151.04-176.64C226.56 618.24 179.2 514.56 179.2 441.6c0-181.76 151.04-332.8 332.8-332.8s332.8 151.04 332.8 332.8c0 47.36-15.36 98.56-52.48 161.28-30.72 62.72-83.2 130.56-145.92 207.36l-93.44 108.8c-10.24 16.64-25.6 21.76-40.96 21.76z m0-779.52c-156.16 0-280.32 124.16-280.32 280.32 0 62.72 47.36 156.16 135.68 275.2 67.84 93.44 140.8 171.52 145.92 171.52l93.44-108.8c62.72-78.08 108.8-145.92 140.8-202.24s47.36-103.68 47.36-140.8c-2.56-151.04-126.72-275.2-282.88-275.2z m0 436.48c-83.2 0-156.16-67.84-156.16-156.16 0-83.2 67.84-156.16 156.16-156.16 83.2 0 156.16 67.84 156.16 156.16 0 83.2-72.96 156.16-156.16 156.16z m0-259.84c-57.6 0-103.68 47.36-103.68 103.68S455.68 545.28 512 545.28s103.68-47.36 103.68-103.68S569.6 337.92 512 337.92z" p-id="4612"></path></svg>