<?xml version="1.0" standalone="no"?><!DOCTYPE svg PUBLIC "-//W3C//DTD SVG 1.1//EN" "http://www.w3.org/Graphics/SVG/1.1/DTD/svg11.dtd"><svg t="1605010681081" class="icon" viewBox="0 0 1024 1024" version="1.1" xmlns="http://www.w3.org/2000/svg" p-id="7040" xmlns:xlink="http://www.w3.org/1999/xlink" width="200" height="200"><defs><style type="text/css"></style></defs><path d="M512 444c24.3 0 44 19.7 44 44v224c0 24.3-19.7 44-44 44s-44-19.7-44-44V488c0-24.3 19.7-44 44-44z m0-58c-27.062 0-49-21.938-49-49s21.938-49 49-49 49 21.938 49 49-21.938 49-49 49z" p-id="7041"></path><path d="M512 949c241.348 0 437-195.652 437-437S753.348 75 512 75 75 270.652 75 512s195.652 437 437 437z m0-66c-204.898 0-371-166.102-371-371s166.102-371 371-371 371 166.102 371 371-166.102 371-371 371z" p-id="7042"></path></svg>