<?xml version="1.0" standalone="no"?><!DOCTYPE svg PUBLIC "-//W3C//DTD SVG 1.1//EN" "http://www.w3.org/Graphics/SVG/1.1/DTD/svg11.dtd"><svg t="1610033904287" class="icon" viewBox="0 0 1024 1024" version="1.1" xmlns="http://www.w3.org/2000/svg" p-id="1118" xmlns:xlink="http://www.w3.org/1999/xlink" width="200" height="200"><defs><style type="text/css"></style></defs><path d="M684.07 452.22h-0.01l-209.4-120.91c-23.38-13.48-51.27-13.49-74.67 0.01-23.36 13.5-37.32 37.67-37.32 64.66v241.8c0 27 13.96 51.17 37.34 64.67 11.68 6.75 24.5 10.11 37.32 10.11s25.65-3.38 37.33-10.12l209.39-120.89c23.39-13.5 37.34-37.67 37.34-64.66 0.01-26.98-13.94-51.16-37.32-64.67zM448 619.3V414.46l177.4 102.42L448 619.3z" fill="#ffffff" p-id="1119"></path><path d="M512 42.67C253.21 42.67 42.67 253.21 42.67 512S253.21 981.33 512 981.33 981.33 770.79 981.33 512 770.79 42.67 512 42.67zM512 896c-211.74 0-384-172.26-384-384s172.26-384 384-384 384 172.26 384 384-172.26 384-384 384z" fill="#ffffff" p-id="1120"></path></svg>