<?xml version="1.0" standalone="no"?><!DOCTYPE svg PUBLIC "-//W3C//DTD SVG 1.1//EN" "http://www.w3.org/Graphics/SVG/1.1/DTD/svg11.dtd"><svg t="1605009895569" class="icon" viewBox="0 0 1024 1024" version="1.1" xmlns="http://www.w3.org/2000/svg" p-id="3705" xmlns:xlink="http://www.w3.org/1999/xlink" width="200" height="200"><defs><style type="text/css"></style></defs><path d="M736 512H512V224a32 32 0 0 0-64 0v320a32 32 0 0 0 32 32h256a32 32 0 0 0 0-64z" p-id="3706"></path><path d="M512 64a448 448 0 1 0 448 448A448 448 0 0 0 512 64z m0 832a384 384 0 1 1 384-384 384 384 0 0 1-384 384z" p-id="3707"></path></svg>