<?xml version="1.0" standalone="no"?><!DOCTYPE svg PUBLIC "-//W3C//DTD SVG 1.1//EN" "http://www.w3.org/Graphics/SVG/1.1/DTD/svg11.dtd"><svg t="1605011760776" class="icon" viewBox="0 0 1024 1024" version="1.1" xmlns="http://www.w3.org/2000/svg" p-id="15786" xmlns:xlink="http://www.w3.org/1999/xlink" width="200" height="200"><defs><style type="text/css"></style></defs><path d="M885.333333 729.6l-298.666666-520.533333c-32-57.6-115.2-57.6-147.2 0l-298.666667 520.533333c-32 57.6 8.533333 128 74.666667 128h597.333333c64 0 104.533333-72.533333 72.533333-128zM512 780.8c-25.6 0-44.8-19.2-44.8-44.8s19.2-44.8 44.8-44.8 44.8 19.2 44.8 44.8-19.2 44.8-44.8 44.8z m44.8-192c0 25.6-19.2 44.8-44.8 44.8s-44.8-19.2-44.8-44.8v-209.066667c0-25.6 19.2-44.8 44.8-44.8s44.8 19.2 44.8 44.8v209.066667z" fill="#1296db" p-id="15787"></path></svg>